# xmcd
#
# Track frame offsets:
#	150
#	15103
#	29896
#	47512
#	62065
#	77291
#	92318
#	107563
#	122128
#	136000
#	150452
#	165650
#	180475
#	193140
#	208096
#	223588
#	240196
#	257442
#	266814
#	278804
#	295364
#	307970
#	317380
#	334923
#
# Disc length: 4647 seconds
#
# Revision: 1
# Processed by: cddbd v1.5.2PL0 Copyright (c) Steve Scherf et al.
# Submitted via: audiograbber 1.83.01
#
DISCID=3e122518
DTITLE=Western Heart - Western Heart 071
DYEAR=2006
DGENRE=Country
TTITLE0=They Will Never Get The Truth From Me - Hal Willis
TTITLE1=The Tree - Erin Hay
TTITLE2=Blind Horses - Pete And The Rowers
TTITLE3=Don´t Come Knocking - Cheryk K Warner
TTITLE4=Do What Your Heart Tells You - Jose Daniel
TTITLE5=Cheaper To Keep´er - David Cline
TTITLE6=Victoria´s Gotta Secret - Stevie Cee
TTITLE7=Brokeheart Mountain - James Marvell
TTITLE8=Long Live The Princeess - Jim Marvell
TTITLE9=Snake Song - Jim Owen
TTITLE10=Cold Cold Heart - Pattie Mckinnon
TTITLE11=In The Shade - Stephen Shepherd
TTITLE12=Fighting Side Of Me - Tim Chesney
TTITLE13=The Writing Was On The Wall - Jo-el Curtis
TTITLE14=New Man - Jessee Williams
TTITLE15=Midnight Fantasy - Roy Cost
TTITLE16=Somwhere In San Antone - Jessee Williams
TTITLE17=Cajun Queen From New Oreleans - Jimmy Evans
TTITLE18=Im Gonna Be There - Roy Martin
TTITLE19=I Broke My Own Heart - Gille Larsen
TTITLE20=Broken Pieces - Irma Young
TTITLE21=Expecting A Miracle - Theresa Haddock 
TTITLE22=Jesus Again - Shane Tecza
TTITLE23=He Rescued Me - Shane Tecza
EXTD=
EXTT0=
EXTT1=
EXTT2=
EXTT3=
EXTT4=
EXTT5=
EXTT6=
EXTT7=
EXTT8=
EXTT9=
EXTT10=
EXTT11=
EXTT12=
EXTT13=
EXTT14=
EXTT15=
EXTT16=
EXTT17=
EXTT18=
EXTT19=
EXTT20=
EXTT21=
EXTT22=
EXTT23=
PLAYORDER=
